<!DOCTYPE svg PUBLIC "-//W3C//DTD SVG 20010904//EN" "http://www.w3.org/TR/2001/REC-SVG-20010904/DTD/svg10.dtd">
<svg version="1.0" xmlns="http://www.w3.org/2000/svg" width="306px" height="425px" viewBox="0 0 3060 4250" preserveAspectRatio="xMidYMid meet">
<g id="layer101" fill="#66a4f0" stroke="none">
 <path d="M1398 3973 c6 -2 18 -2 25 0 6 3 1 5 -13 5 -14 0 -19 -2 -12 -5z"/>
 <path d="M1455 3684 c-421 -34 -645 -36 -1012 -8 -110 8 -112 6 -53 -79 22 -31 40 -59 40 -62 0 -3 16 -28 35 -55 19 -27 35 -52 35 -55 0 -3 8 -18 18 -33 55 -79 102 -153 102 -158 0 -3 8 -17 19 -32 10 -15 53 -83 95 -152 42 -69 81 -132 86 -140 5 -8 26 -44 47 -79 21 -35 46 -77 56 -92 31 -52 55 -93 99 -167 24 -41 48 -81 53 -91 6 -9 39 -68 74 -131 36 -63 67 -117 71 -120 3 -3 11 -17 17 -32 12 -26 11 -28 -9 -28 -11 0 -37 -4 -57 -9 -150 -38 -317 -52 -636 -52 -154 0 -290 -2 -302 -5 -17 -5 -23 -13 -23 -34 0 -43 51 -79 258 -185 29 -14 65 -29 80 -31 15 -3 37 -12 49 -19 12 -8 36 -17 53 -20 17 -3 39 -10 48 -15 25 -14 122 -39 173 -45 25 -3 58 -9 75 -14 16 -4 71 -4 123 1 51 5 95 7 98 4 4 -4 -63 -93 -87 -116 -18 -17 -70 -89 -70 -97 0 -5 -11 -19 -25 -31 -14 -12 -25 -26 -25 -30 0 -5 -19 -29 -41 -53 -23 -24 -52 -61 -65 -82 -14 -20 -31 -45 -39 -55 -7 -9 -40 -49 -72 -88 -82 -101 -194 -242 -217 -273 -11 -14 -44 -56 -73 -92 -71 -88 -68 -124 5 -85 15 7 70 34 122 60 52 25 102 50 110 54 18 10 72 39 115 60 17 9 34 21 38 29 4 7 14 13 22 13 7 0 15 3 17 8 2 4 23 21 47 37 25 17 65 59 90 94 70 98 229 312 261 351 16 19 57 73 91 118 34 46 76 100 94 119 l31 34 79 -153 c43 -84 129 -254 193 -378 63 -124 142 -279 176 -345 33 -66 62 -122 64 -125 2 -6 -170 -20 -498 -40 -91 -6 -251 -17 -355 -25 -296 -23 -363 -21 -815 25 -117 12 -160 5 -160 -29 0 -45 257 -213 450 -294 19 -8 53 -22 75 -31 22 -9 80 -28 130 -41 83 -23 107 -25 305 -25 118 0 301 7 405 15 446 35 650 37 1023 9 109 -8 111 -6 52 79 -22 31 -40 59 -40 62 0 3 -16 28 -35 55 -19 27 -35 52 -35 55 0 3 -8 18 -18 33 -55 79 -102 153 -102 158 0 3 -8 17 -19 32 -10 15 -53 83 -95 152 -42 69 -81 132 -86 140 -5 8 -26 44 -47 79 -21 35 -46 77 -55 92 -32 52 -56 93 -100 167 -24 41 -47 81 -53 91 -5 9 -39 68 -74 131 -36 63 -67 117 -70 120 -4 3 -16 24 -29 48 l-23 42 26 10 c15 6 40 10 57 10 17 0 47 4 67 9 150 38 317 52 636 52 154 0 290 2 302 5 17 5 23 13 23 34 0 43 -51 79 -258 185 -29 14 -65 29 -80 31 -15 3 -37 12 -49 19 -12 8 -36 17 -53 20 -17 3 -39 10 -48 15 -25 14 -122 39 -173 45 -25 3 -59 9 -77 14 -17 5 -39 8 -49 6 -10 -2 -44 -6 -75 -9 -54 -4 -57 -3 -48 14 5 10 22 31 37 47 16 15 44 48 63 72 19 24 40 49 45 55 6 6 26 31 46 56 20 25 52 61 70 81 19 20 45 51 59 68 14 18 48 58 77 89 110 121 133 147 133 154 0 3 26 33 58 65 32 32 97 103 144 158 47 55 102 116 122 134 20 19 36 43 36 52 0 18 -90 94 -180 151 -56 36 -206 114 -270 141 -19 8 -53 22 -75 31 -22 9 -80 28 -130 41 -85 24 -104 25 -325 24 -129 -1 -307 -7 -395 -15z m858 -370 c45 -6 45 -7 34 -33 -13 -29 -27 -47 -72 -96 -16 -19 -43 -52 -60 -74 -16 -22 -40 -53 -52 -68 -13 -16 -23 -33 -23 -38 0 -6 -12 -22 -27 -37 -16 -14 -37 -38 -48 -53 -11 -15 -32 -42 -47 -60 -16 -18 -28 -36 -28 -39 0 -4 -25 -36 -55 -71 -30 -36 -55 -69 -55 -74 0 -4 -10 -19 -22 -33 -13 -13 -34 -40 -48 -58 -14 -19 -37 -48 -52 -66 -16 -17 -28 -35 -28 -38 0 -4 -22 -34 -50 -67 -27 -33 -50 -63 -50 -67 0 -5 -24 -34 -53 -65 l-53 -58 -84 163 c-45 90 -134 264 -198 388 -63 124 -142 279 -176 345 -33 66 -62 122 -64 125 -2 6 179 20 508 41 96 6 245 17 330 24 173 14 403 18 473 9z"/>
 </g>

</svg>